<?xml version="1.0" standalone="no"?><!DOCTYPE svg PUBLIC "-//W3C//DTD SVG 1.1//EN" "http://www.w3.org/Graphics/SVG/1.1/DTD/svg11.dtd"><svg t="1567254427182" class="icon" viewBox="0 0 3477 1024" version="1.1" xmlns="http://www.w3.org/2000/svg" p-id="1599" xmlns:xlink="http://www.w3.org/1999/xlink" width="679.1015625" height="200"><defs><style type="text/css"></style></defs><path d="M2221.691139 622.177215c93.326582-2.592405 127.027848-67.402532 127.027848-124.435443L2348.718987 155.544304l12.962025 0 12.962025-51.848101L2097.255696 103.696203l12.962025 51.848101 186.653165 0 0 337.012658c0 49.255696-36.293671 80.364557-88.141772 80.364557L2221.691139 622.177215 2221.691139 622.177215z" fill="#2c2c2c" p-id="1600"></path><path d="M2232.060759 505.518987c12.962025-12.962025 18.146835-31.108861 18.146835-59.625316L2250.207595 202.207595 2099.848101 202.207595l0 321.458228 82.956962 0C2203.544304 523.665823 2221.691139 518.481013 2232.060759 505.518987zM2151.696203 469.225316 2151.696203 254.055696l46.663291 0L2198.359494 440.708861c0 20.739241-7.777215 28.516456-25.924051 28.516456L2151.696203 469.225316z" fill="#2c2c2c" p-id="1601"></path><path d="M1889.863291 101.103797 1889.863291 622.177215l51.848101 0 0-23.331646L1941.711392 318.865823 1941.711392 155.544304l62.217722 0-38.886076 163.321519 0 0 0 0c15.55443 12.962025 44.070886 46.663291 44.070886 103.696203 0 57.032911-33.701266 77.772152-44.070886 82.956962l0 54.440506c28.516456-2.592405 98.511392-41.478481 98.511392-134.805063 0-57.032911-20.739241-95.918987-38.886076-121.843038l46.663291-202.207595L1889.863291 101.103797z" fill="#2c2c2c" p-id="1602"></path><path d="M2473.15443 570.329114 2462.78481 622.177215l461.448101 0-12.962025-51.848101-191.837975 0 0-64.810127 176.283544 0-12.962025-51.848101-165.913924 0L2716.840506 388.860759l119.250633 0c57.032911 0 85.549367-28.516456 85.549367-85.549367L2921.640506 101.103797 2462.78481 101.103797 2462.78481 388.860759l202.207595 0 0 62.217722-165.913924 0-12.962025 51.848101 176.283544 0L2662.4 570.329114 2473.15443 570.329114zM2719.432911 272.202532l121.843038 0-12.962025-51.848101-108.881013 0L2719.432911 155.544304l150.359494 0 0 145.174684c0 25.924051-10.36962 36.293671-31.108861 36.293671l-119.250633 0L2719.432911 272.202532zM2517.225316 337.012658 2517.225316 155.544304l150.359494 0 0 64.810127-108.881013 0-12.962025 51.848101 121.843038 0L2667.58481 337.012658 2517.225316 337.012658z" fill="#2c2c2c" p-id="1603"></path><path d="M3424.567089 101.103797 3061.63038 101.103797 3048.668354 155.544304 3437.529114 155.544304Z" fill="#2c2c2c" p-id="1604"></path><path d="M3040.891139 616.992405l-2.592405 5.18481 355.159494 0c20.739241 0 36.293671-5.18481 46.663291-18.146835 10.36962-15.55443 7.777215-33.701266 2.592405-44.070886l0 0c-5.18481-25.924051-25.924051-116.658228-31.108861-129.620253l0-2.592405-54.440506 0 2.592405 5.18481c2.592405 12.962025 25.924051 106.288608 31.108861 137.397468l-285.164557 0c12.962025-59.625316 36.293671-163.321519 49.255696-212.577215L3473.822785 357.751899l-12.962025-51.848101-435.524051 0-12.962025 51.848101 88.141772 0C3090.146835 404.41519 3059.037975 534.035443 3040.891139 616.992405z" fill="#2c2c2c" p-id="1605"></path><path d="M2042.81519 928.081013c-5.18481 0-7.777215 0-7.777215-2.592405 0-2.592405-2.592405-5.18481-2.592405-7.777215l0-103.696203c0-15.55443-5.18481-28.516456-18.146835-36.293671-12.962025-7.777215-31.108861-12.962025-51.848101-12.962025-18.146835 0-33.701266 5.18481-46.663291 12.962025-12.962025 7.777215-20.739241 23.331646-20.739241 46.663291l28.516456 0c0-10.36962 2.592405-15.55443 7.777215-20.739241 7.777215-7.777215 18.146835-12.962025 33.701266-12.962025 12.962025 0 23.331646 2.592405 31.108861 7.777215 7.777215 5.18481 10.36962 12.962025 10.36962 23.331646 0 5.18481 0 7.777215-2.592405 10.36962-2.592405 5.18481-7.777215 7.777215-12.962025 7.777215l-46.663291 5.18481c-15.55443 2.592405-31.108861 7.777215-41.478481 15.55443-10.36962 7.777215-15.55443 20.739241-15.55443 38.886076 0 15.55443 5.18481 28.516456 15.55443 36.293671 10.36962 10.36962 23.331646 15.55443 41.478481 15.55443 12.962025 0 25.924051-2.592405 38.886076-7.777215 10.36962-5.18481 20.739241-12.962025 25.924051-20.739241 0 7.777215 2.592405 12.962025 5.18481 15.55443 5.18481 7.777215 12.962025 10.36962 23.331646 10.36962 5.18481 0 7.777215 0 10.36962 0 2.592405 0 5.18481 0 10.36962-2.592405l0-23.331646c-2.592405 0-2.592405 0-5.18481 0C2045.407595 928.081013 2045.407595 928.081013 2042.81519 928.081013zM2003.929114 881.417722c0 18.146835-7.777215 31.108861-25.924051 38.886076-10.36962 5.18481-20.739241 7.777215-31.108861 7.777215-7.777215 0-15.55443-2.592405-23.331646-7.777215-5.18481-5.18481-10.36962-12.962025-10.36962-20.739241 0-10.36962 5.18481-20.739241 12.962025-25.924051 5.18481-2.592405 12.962025-5.18481 23.331646-7.777215l18.146835-2.592405c5.18481 0 10.36962-2.592405 18.146835-2.592405 5.18481-2.592405 10.36962-2.592405 12.962025-5.18481L1998.744304 881.417722z" fill="#2c2c2c" p-id="1606"></path><path d="M2084.293671 702.541772l31.108861 0 0 243.686076-31.108861 0 0-243.686076Z" fill="#2c2c2c" p-id="1607"></path><path d="M2156.881013 769.944304l31.108861 0 0 176.283544-31.108861 0 0-176.283544Z" fill="#2c2c2c" p-id="1608"></path><path d="M2156.881013 702.541772l31.108861 0 0 33.701266-31.108861 0 0-33.701266Z" fill="#2c2c2c" p-id="1609"></path><path d="M2296.870886 915.118987l-46.663291-145.174684-33.701266 0 64.810127 184.060759c-2.592405 2.592405-5.18481 10.36962-7.777215 18.146835-2.592405 7.777215-5.18481 12.962025-5.18481 12.962025-2.592405 2.592405-5.18481 5.18481-7.777215 7.777215-2.592405 2.592405-7.777215 2.592405-12.962025 2.592405-2.592405 0-2.592405 0-5.18481 0-2.592405 0-5.18481 0-10.36962-2.592405l0 28.516456c2.592405 0 5.18481 2.592405 7.777215 2.592405 2.592405 0 5.18481 0 10.36962 0 18.146835 0 28.516456-5.18481 36.293671-15.55443 7.777215-10.36962 18.146835-36.293671 36.293671-82.956962 7.777215-18.146835 15.55443-44.070886 25.924051-75.179747 15.55443-41.478481 23.331646-67.402532 28.516456-77.772152l-33.701266 0L2296.870886 915.118987z" fill="#2c2c2c" p-id="1610"></path><path d="M2514.632911 855.493671c0 18.146835-2.592405 31.108861-5.18481 41.478481-7.777215 18.146835-20.739241 28.516456-41.478481 28.516456-12.962025 0-23.331646-5.18481-28.516456-15.55443-2.592405-5.18481-5.18481-12.962025-5.18481-23.331646l0-119.250633-31.108861 0 0 121.843038c0 15.55443 2.592405 28.516456 7.777215 36.293671 7.777215 18.146835 25.924051 25.924051 51.848101 25.924051 15.55443 0 28.516456-5.18481 41.478481-12.962025 5.18481-5.18481 10.36962-10.36962 12.962025-18.146835l0 25.924051 28.516456 0 0-178.875949L2514.632911 767.351899 2514.632911 855.493671z" fill="#2c2c2c" p-id="1611"></path><path d="M2677.95443 764.759494c-10.36962 0-20.739241 2.592405-31.108861 7.777215-10.36962 5.18481-18.146835 12.962025-25.924051 23.331646l0-25.924051L2592.405063 769.944304l0 178.875949 31.108861 0 0-93.326582c0-10.36962 0-20.739241 2.592405-25.924051 2.592405-5.18481 5.18481-12.962025 10.36962-18.146835 5.18481-7.777215 12.962025-12.962025 20.739241-15.55443 5.18481-2.592405 10.36962-2.592405 18.146835-2.592405 12.962025 0 23.331646 5.18481 28.516456 15.55443 2.592405 7.777215 5.18481 15.55443 5.18481 25.924051l0 111.473418 31.108861 0 0-114.065823c0-18.146835-2.592405-31.108861-7.777215-41.478481C2722.025316 775.129114 2703.878481 764.759494 2677.95443 764.759494z" fill="#2c2c2c" p-id="1612"></path><path d="M2789.427848 909.934177l33.701266 0 0 36.293671-33.701266 0 0-36.293671Z" fill="#2c2c2c" p-id="1613"></path><path d="M2944.972152 790.683544c12.962025 0 23.331646 2.592405 31.108861 10.36962 5.18481 7.777215 10.36962 15.55443 12.962025 28.516456l28.516456 0c-2.592405-23.331646-10.36962-41.478481-23.331646-49.255696-12.962025-10.36962-28.516456-15.55443-49.255696-15.55443-23.331646 0-44.070886 7.777215-57.032911 25.924051-15.55443 18.146835-23.331646 41.478481-23.331646 72.587342 0 25.924051 7.777215 46.663291 20.739241 64.810127 12.962025 18.146835 31.108861 25.924051 54.440506 25.924051 20.739241 0 38.886076-5.18481 51.848101-15.55443 12.962025-10.36962 20.739241-28.516456 25.924051-51.848101l-28.516456 0c-2.592405 12.962025-7.777215 23.331646-15.55443 31.108861-7.777215 7.777215-18.146835 10.36962-28.516456 10.36962-15.55443 0-28.516456-5.18481-36.293671-18.146835-7.777215-12.962025-10.36962-25.924051-10.36962-44.070886 0-18.146835 2.592405-33.701266 7.777215-44.070886C2911.270886 801.053165 2924.232911 790.683544 2944.972152 790.683544z" fill="#2c2c2c" p-id="1614"></path><path d="M3116.070886 764.759494c-25.924051 0-46.663291 7.777215-59.625316 25.924051-15.55443 18.146835-23.331646 41.478481-23.331646 72.587342 0 28.516456 7.777215 49.255696 20.739241 67.402532 15.55443 15.55443 33.701266 25.924051 57.032911 25.924051 28.516456 0 51.848101-10.36962 64.810127-28.516456 12.962025-18.146835 20.739241-41.478481 20.739241-69.994937 0-28.516456-7.777215-51.848101-23.331646-67.402532C3160.141772 772.536709 3139.402532 764.759494 3116.070886 764.759494zM3154.956962 904.749367c-7.777215 15.55443-20.739241 23.331646-41.478481 23.331646-18.146835 0-31.108861-5.18481-38.886076-18.146835-7.777215-12.962025-12.962025-28.516456-12.962025-46.663291 0-20.739241 5.18481-36.293671 12.962025-49.255696 7.777215-12.962025 20.739241-20.739241 38.886076-20.739241 20.739241 0 33.701266 7.777215 44.070886 23.331646 5.18481 10.36962 7.777215 23.331646 7.777215 41.478481C3167.918987 873.640506 3162.734177 889.194937 3154.956962 904.749367z" fill="#2c2c2c" p-id="1615"></path><path d="M3466.04557 790.683544c-7.777215-18.146835-25.924051-25.924051-49.255696-25.924051-10.36962 0-20.739241 2.592405-31.108861 7.777215-7.777215 5.18481-15.55443 12.962025-23.331646 20.739241-5.18481-7.777215-7.777215-12.962025-12.962025-18.146835-7.777215-7.777215-20.739241-10.36962-33.701266-10.36962-12.962025 0-23.331646 2.592405-33.701266 10.36962-5.18481 5.18481-12.962025 10.36962-18.146835 18.146835l0-25.924051-28.516456 0 0 178.875949 31.108861 0 0-93.326582c0-23.331646 5.18481-38.886076 12.962025-46.663291 10.36962-7.777215 20.739241-12.962025 31.108861-12.962025 12.962025 0 20.739241 5.18481 25.924051 12.962025 2.592405 5.18481 5.18481 15.55443 5.18481 25.924051l0 116.658228 31.108861 0 0-103.696203c0-18.146835 5.18481-31.108861 12.962025-38.886076 7.777215-7.777215 18.146835-12.962025 31.108861-12.962025 7.777215 0 15.55443 2.592405 20.739241 7.777215 5.18481 5.18481 7.777215 12.962025 7.777215 23.331646l0 124.435443 31.108861 0L3476.41519 829.56962C3473.822785 814.01519 3471.23038 801.053165 3466.04557 790.683544z" fill="#2c2c2c" p-id="1616"></path><path d="M295.534177 782.906329c-33.701266-7.777215-59.625316-36.293671-59.625316-72.587342 0 0 0-396.637975 0-399.23038 2.592405-36.293671 25.924051-64.810127 59.625316-72.587342l370.713924-80.364557L705.134177 0 274.794937 0C121.843038 0 0 121.843038 0 272.202532l0 471.817722c0 150.359494 124.435443 274.794937 274.794937 274.794937l430.339241 0-38.886076-158.136709L295.534177 782.906329z" fill="#2c2c2c" p-id="1617"></path><path d="M1373.974684 0 941.043038 0l38.886076 158.136709 370.713924 80.364557c33.701266 7.777215 59.625316 36.293671 59.625316 72.587342 0 0 0 396.637975 0 399.23038-2.592405 36.293671-25.924051 64.810127-59.625316 72.587342l-370.713924 80.364557-38.886076 158.136709L1373.974684 1021.407595c150.359494 0 274.794937-121.843038 274.794937-274.794937L1648.76962 272.202532C1646.177215 121.843038 1524.334177 0 1373.974684 0z" fill="#2c2c2c" p-id="1618"></path><path d="M666.248101 489.964557l316.273418 0 0 38.886076-316.273418 0 0-38.886076Z" fill="#2c2c2c" p-id="1619"></path></svg>